<svg width="32" height="32" viewBox="0 0 36 36" fill="none" xmlns="http://www.w3.org/2000/svg">
  <path d="M18 2L4 8v10c0 8.5 6 16 14 18 8-2 14-9.5 14-18V8L18 2z" fill="#10b981" />
  <path d="M18 2L4 8v10c0 8.5 6 16 14 18 8-2 14-9.5 14-18V8L18 2z" fill="url(#shieldGrad)" />
  <path d="M11 18c0-3.87 3.13-7 7-7s7 3.13 7 7" stroke="white" strokeWidth="2" strokeLinecap="round" fill="none" opacity="0.5"/>
  <path d="M13.5 18c0-2.49 2.02-4.5 4.5-4.5s4.5 2.01 4.5 4.5" stroke="white" strokeWidth="2" strokeLinecap="round" fill="none" opacity="0.75"/>
  <circle cx="18" cy="18" r="2" fill="white" />
  <defs>
    <linearGradient id="shieldGrad" x1="4" y1="2" x2="32" y2="36" gradientUnits="userSpaceOnUse">
      <stop offset="0%" stopColor="#10b981" />
      <stop offset="100%" stopColor="#0f766e" />
    </linearGradient>
  </defs>
</svg>
